<svg width="132" height="45" viewBox="0 0 132 45" fill="none" xmlns="http://www.w3.org/2000/svg">
<rect width="131.5" height="44.5" rx="13" fill="white"/>
<rect x="3.78" y="3.78" width="123.44" height="36.44" rx="9.22" fill="white" stroke="black" stroke-width="1.56"/>
<path d="M43.2383 23.0977H39.2305V30H36.9688V12.9375H42.6172C44.5391 12.9375 46.0156 13.375 47.0469 14.25C48.0859 15.125 48.6055 16.3984 48.6055 18.0703C48.6055 19.1328 48.3164 20.0586 47.7383 20.8477C47.168 21.6367 46.3711 22.2266 45.3477 22.6172L49.3555 29.8594V30H46.9414L43.2383 23.0977ZM39.2305 21.2578H42.6875C43.8047 21.2578 44.6914 20.9688 45.3477 20.3906C46.0117 19.8125 46.3438 19.0391 46.3438 18.0703C46.3438 17.0156 46.0273 16.207 45.3945 15.6445C44.7695 15.082 43.8633 14.7969 42.6758 14.7891H39.2305V21.2578ZM56.6914 30.2344C54.9727 30.2344 53.5742 29.6719 52.4961 28.5469C51.418 27.4141 50.8789 25.9023 50.8789 24.0117V23.6133C50.8789 22.3555 51.1172 21.2344 51.5938 20.25C52.0781 19.2578 52.75 18.4844 53.6094 17.9297C54.4766 17.3672 55.4141 17.0859 56.4219 17.0859C58.0703 17.0859 59.3516 17.6289 60.2656 18.7148C61.1797 19.8008 61.6367 21.3555 61.6367 23.3789V24.2812H53.0469C53.0781 25.5312 53.4414 26.543 54.1367 27.3164C54.8398 28.082 55.7305 28.4648 56.8086 28.4648C57.5742 28.4648 58.2227 28.3086 58.7539 27.9961C59.2852 27.6836 59.75 27.2695 60.1484 26.7539L61.4727 27.7852C60.4102 29.418 58.8164 30.2344 56.6914 30.2344ZM56.4219 18.8672C55.5469 18.8672 54.8125 19.1875 54.2188 19.8281C53.625 20.4609 53.2578 21.3516 53.1172 22.5H59.4688V22.3359C59.4062 21.2344 59.1094 20.3828 58.5781 19.7812C58.0469 19.1719 57.3281 18.8672 56.4219 18.8672ZM71.5391 26.6367C71.5391 26.0508 71.3164 25.5977 70.8711 25.2773C70.4336 24.9492 69.6641 24.668 68.5625 24.4336C67.4688 24.1992 66.5977 23.918 65.9492 23.5898C65.3086 23.2617 64.832 22.8711 64.5195 22.418C64.2148 21.9648 64.0625 21.4258 64.0625 20.8008C64.0625 19.7617 64.5 18.8828 65.375 18.1641C66.2578 17.4453 67.3828 17.0859 68.75 17.0859C70.1875 17.0859 71.3516 17.457 72.2422 18.1992C73.1406 18.9414 73.5898 19.8906 73.5898 21.0469H71.4102C71.4102 20.4531 71.1562 19.9414 70.6484 19.5117C70.1484 19.082 69.5156 18.8672 68.75 18.8672C67.9609 18.8672 67.3438 19.0391 66.8984 19.3828C66.4531 19.7266 66.2305 20.1758 66.2305 20.7305C66.2305 21.2539 66.4375 21.6484 66.8516 21.9141C67.2656 22.1797 68.0117 22.4336 69.0898 22.6758C70.1758 22.918 71.0547 23.207 71.7266 23.543C72.3984 23.8789 72.8945 24.2852 73.2148 24.7617C73.543 25.2305 73.707 25.8047 73.707 26.4844C73.707 27.6172 73.2539 28.5273 72.3477 29.2148C71.4414 29.8945 70.2656 30.2344 68.8203 30.2344C67.8047 30.2344 66.9062 30.0547 66.125 29.6953C65.3438 29.3359 64.7305 28.8359 64.2852 28.1953C63.8477 27.5469 63.6289 26.8477 63.6289 26.0977H65.7969C65.8359 26.8242 66.125 27.4023 66.6641 27.832C67.2109 28.2539 67.9297 28.4648 68.8203 28.4648C69.6406 28.4648 70.2969 28.3008 70.7891 27.9727C71.2891 27.6367 71.5391 27.1914 71.5391 26.6367ZM81.793 30.2344C80.0742 30.2344 78.6758 29.6719 77.5977 28.5469C76.5195 27.4141 75.9805 25.9023 75.9805 24.0117V23.6133C75.9805 22.3555 76.2188 21.2344 76.6953 20.25C77.1797 19.2578 77.8516 18.4844 78.7109 17.9297C79.5781 17.3672 80.5156 17.0859 81.5234 17.0859C83.1719 17.0859 84.4531 17.6289 85.3672 18.7148C86.2812 19.8008 86.7383 21.3555 86.7383 23.3789V24.2812H78.1484C78.1797 25.5312 78.543 26.543 79.2383 27.3164C79.9414 28.082 80.832 28.4648 81.9102 28.4648C82.6758 28.4648 83.3242 28.3086 83.8555 27.9961C84.3867 27.6836 84.8516 27.2695 85.25 26.7539L86.5742 27.7852C85.5117 29.418 83.918 30.2344 81.793 30.2344ZM81.5234 18.8672C80.6484 18.8672 79.9141 19.1875 79.3203 19.8281C78.7266 20.4609 78.3594 21.3516 78.2188 22.5H84.5703V22.3359C84.5078 21.2344 84.2109 20.3828 83.6797 19.7812C83.1484 19.1719 82.4297 18.8672 81.5234 18.8672ZM92.1992 14.25V17.3203H94.5664V18.9961H92.1992V26.8594C92.1992 27.3672 92.3047 27.75 92.5156 28.0078C92.7266 28.2578 93.0859 28.3828 93.5938 28.3828C93.8438 28.3828 94.1875 28.3359 94.625 28.2422V30C94.0547 30.1562 93.5 30.2344 92.9609 30.2344C91.9922 30.2344 91.2617 29.9414 90.7695 29.3555C90.2773 28.7695 90.0312 27.9375 90.0312 26.8594V18.9961H87.7227V17.3203H90.0312V14.25H92.1992Z" fill="black"/>
</svg>
