<svg width="76" height="77" viewBox="0 0 76 77" fill="none" xmlns="http://www.w3.org/2000/svg">
<path d="M37.775 0.88416C16.9124 0.884158 -1.77619e-05 17.7966 -1.95858e-05 38.6591C-2.14097e-05 59.5217 16.9124 76.4341 37.775 76.4341C58.6375 76.4341 75.5499 59.5217 75.5499 38.6591C75.5499 17.7966 58.6375 0.884161 37.775 0.88416Z" fill="white"/>
<path d="M37.7751 4.1569C18.7008 4.15689 3.23802 19.6197 3.23802 38.694C3.23802 57.7683 18.7008 73.2311 37.7751 73.2311C56.8495 73.2311 72.3123 57.7683 72.3123 38.694C72.3123 19.6197 56.8495 4.1569 37.7751 4.1569Z" fill="white" stroke="#231F20" stroke-width="1.54974" stroke-miterlimit="10"/>
<path d="M33.4871 45.5245C33.4871 43.1895 33.7706 41.3298 34.3377 39.9455C34.9047 38.5612 35.9388 37.2019 37.4399 35.8676C38.9576 34.5166 39.9667 33.4242 40.467 32.5903C40.9674 31.7397 41.2176 30.8474 41.2176 29.9134C41.2176 27.0947 39.9166 25.6854 37.3148 25.6854C36.0806 25.6854 35.0882 26.069 34.3377 26.8362C33.6038 27.5867 33.2202 28.6291 33.1869 29.9634H25.9317C25.9651 26.7778 26.9908 24.2844 29.0089 22.4831C31.0437 20.6818 33.8123 19.7812 37.3148 19.7812C40.8506 19.7812 43.5942 20.6401 45.5456 22.358C47.497 24.0592 48.4727 26.4693 48.4727 29.5881C48.4727 31.0058 48.1558 32.3484 47.522 33.616C46.8883 34.8669 45.7791 36.2595 44.1947 37.794L42.1682 39.7203C40.9007 40.9379 40.1752 42.3639 39.9917 43.9984L39.8916 45.5245H33.4871ZM32.7616 53.2049C32.7616 52.0875 33.1368 51.1701 33.8874 50.453C34.6546 49.7191 35.6303 49.3522 36.8144 49.3522C37.9986 49.3522 38.966 49.7191 39.7165 50.453C40.4837 51.1701 40.8673 52.0875 40.8673 53.2049C40.8673 54.3057 40.492 55.2147 39.7415 55.9318C39.0077 56.649 38.032 57.0076 36.8144 57.0076C35.5969 57.0076 34.6129 56.649 33.8623 55.9318C33.1285 55.2147 32.7616 54.3057 32.7616 53.2049Z" fill="black"/>
</svg>
