<svg width="77" height="77" viewBox="0 0 77 77" fill="none" xmlns="http://www.w3.org/2000/svg">
<path d="M38.125 76.1383C59.0658 76.1383 76.0417 59.1625 76.0417 38.2217C76.0417 17.2809 59.0658 0.304993 38.125 0.304993C17.1842 0.304993 0.208374 17.2809 0.208374 38.2217C0.208374 59.1625 17.1842 76.1383 38.125 76.1383Z" fill="white"/>
<path d="M38.125 72.8533C57.2709 72.8533 72.7917 57.3325 72.7917 38.1867C72.7917 19.0408 57.2709 3.51999 38.125 3.51999C18.9792 3.51999 3.45837 19.0408 3.45837 38.1867C3.45837 57.3325 18.9792 72.8533 38.125 72.8533Z" fill="#00E1D4" stroke="#231F20" stroke-width="1.55555" stroke-miterlimit="10"/>
<path d="M51.7467 40.8233L49.4134 43.015V24.1666C49.4134 22.5466 48.2067 21.0466 46.4517 21.0466C44.8167 21.0466 43.4901 22.3733 43.4901 24.0083V21.3316C43.4901 19.6283 42.2267 18.0033 40.3317 18.0033C38.5867 18.0033 37.1734 19.4183 37.1734 21.1616V20.9733C37.1734 19.3683 35.9601 18.0016 34.2117 18.0016C32.5767 18.0016 31.2501 19.3283 31.2501 20.9633V25.9566C31.2501 24.5233 30.0884 23.3616 28.6551 23.3616C27.0984 23.3616 26.0601 24.6366 26.0601 26.0616V47.3683C26.0601 53.4366 30.9517 58.4416 37.0234 58.4416C41.8951 58.4416 46.5367 56.3766 49.8001 52.7616L58.6351 43.1766C59.2284 42.5333 59.2067 41.5366 58.5851 40.92C56.7017 39.05 53.6784 39.0083 51.7467 40.8233Z" fill="white"/>
<path d="M30.92 25.9583V36.1183" stroke="#231F20" stroke-width="1.55555" stroke-miterlimit="10" stroke-linecap="round" stroke-linejoin="round"/>
<path d="M36.8434 21.1617V36.1183" stroke="#231F20" stroke-width="1.55555" stroke-miterlimit="10" stroke-linecap="round" stroke-linejoin="round"/>
<path d="M43.1616 24.0083V36.1183" stroke="#231F20" stroke-width="1.55555" stroke-miterlimit="10" stroke-linecap="round" stroke-linejoin="round"/>
<path d="M49.0867 43.0167H43.0834C40.9284 43.0167 38.9984 43.9733 37.6934 45.485" stroke="#231F20" stroke-width="1.55555" stroke-miterlimit="10" stroke-linecap="round" stroke-linejoin="round"/>
<path d="M51.4184 40.8233L49.085 43.015V24.1666C49.085 22.5466 47.8784 21.0466 46.1234 21.0466C44.4884 21.0466 43.1617 22.3733 43.1617 24.0083V21.3316C43.1617 19.6283 41.8984 18.0033 40.0034 18.0033C38.2584 18.0033 36.845 19.4183 36.845 21.1616V20.9733C36.845 19.3683 35.6317 18.0016 33.8834 18.0016C32.2484 18.0016 30.9217 19.3283 30.9217 20.9633V25.9566C30.9217 24.5233 29.76 23.3616 28.3267 23.3616C26.77 23.3616 25.7317 24.6366 25.7317 26.0616V47.3683C25.7317 53.4366 30.6234 58.4416 36.695 58.4416C42.6284 58.4416 46.2084 56.3766 49.4717 52.7616L58.3067 43.1766C58.9 42.5333 58.8784 41.5366 58.2567 40.92C56.3734 39.05 53.35 39.0083 51.4184 40.8233Z" stroke="#231F20" stroke-width="1.55555" stroke-miterlimit="10" stroke-linecap="round" stroke-linejoin="round"/>
</svg>
