<svg width="130" height="130" viewBox="0 0 130 130" fill="none" xmlns="http://www.w3.org/2000/svg">
<circle cx="65" cy="65" r="65" fill="white"/>
<path d="M52.8 108.5C53.1 108.4 53.3 108.2 53.5 107.9H74.6C74.8 108.2 75 108.4 75.3 108.5C78.2 109.6 76.1 112.6 73.3 114.6C70.5 116.6 67.7 118.6 64 118.6C60.3 118.6 57.5 116.6 54.7 114.6C52 112.6 49.9 109.6 52.8 108.5Z" fill="#29263D" stroke="#29263D" stroke-width="1.9183" stroke-miterlimit="10"/>
<path d="M52.8 108.5C53.1 108.4 53.3 108.2 53.5 107.9H74.6C74.8 108.2 75 108.4 75.3 108.5C78.2 109.6 76.1 112.6 73.3 114.6C70.5 116.6 67.7 118.6 64 118.6C60.3 118.6 57.5 116.6 54.7 114.6C52 112.6 49.9 109.6 52.8 108.5Z" fill="#F79696" stroke="#29263D" stroke-width="1.9183" stroke-miterlimit="10"/>
<path d="M73.2999 114.6C70.4999 116.6 67.6999 118.6 63.9999 118.6C60.2999 118.6 57.4999 116.6 54.6999 114.6C51.8999 112.6 49.7999 109.6 52.6999 108.5C52.9999 108.4 53.1999 108.2 53.3999 107.9C54.5999 106.1 54.7999 101 54.6999 97.1C54.6999 96.5 54.6999 95.8 54.6999 95.3C54.5999 93.4 54.4999 92.1 54.4999 92.1H73.4999C73.4999 92.1 73.3999 93.3 73.2999 95.1C73.1999 96.9 73.1999 99.4 73.2999 101.7C73.3999 104.3 73.7999 106.8 74.4999 107.9C74.6999 108.2 74.8999 108.4 75.1999 108.5C78.1999 109.6 76.0999 112.6 73.2999 114.6Z" fill="white"/>
<path d="M43.8001 75.1C43.4001 75.2 42.9001 75.1 42.3001 75C41.8001 74.9 41.3001 74.8 40.9001 74.6C34.8001 72.5 33.7001 65.4 35.1001 62.8C36.2001 60.7 38.6001 60.5 40.0001 60.6C40.4001 60.6 40.8001 60.7 40.9001 60.7C41.0001 60.7 41.0001 60.7 41.0001 60.7H41.1001C45.1001 62.4 49.0001 74.4 43.8001 75.1Z" fill="white" stroke="#29263D" stroke-width="1.9183" stroke-miterlimit="10" stroke-linecap="round" stroke-linejoin="round"/>
<path d="M41.2999 67C41.2999 67 39.6 64.1 37.2 63.8" stroke="#333333" stroke-width="1.9183" stroke-miterlimit="10" stroke-linecap="round" stroke-linejoin="round"/>
<path d="M39.7 65C39.7 65 38.1 66.2 37.7 67.6" stroke="#333333" stroke-width="1.9183" stroke-miterlimit="10" stroke-linecap="round" stroke-linejoin="round"/>
<path d="M86.3999 74.9C86.2999 74.9 86.1999 75 86.0999 75C85.9999 75 85.8999 75 85.7999 75C85.3999 75 85.0999 75.1 84.7999 75C79.4999 74.7 82.9999 63 86.9999 61C87.0999 60.9 87.1999 60.9 87.2999 60.9C87.2999 60.9 91.5999 59.9 93.1999 63C94.6999 65.6 93.3999 73.3 86.3999 74.9Z" fill="white" stroke="#29263D" stroke-width="1.9183" stroke-miterlimit="10" stroke-linecap="round" stroke-linejoin="round"/>
<path d="M87.1001 67C87.1001 67 88.8001 64.1 91.2001 63.8" stroke="#333333" stroke-width="1.9183" stroke-miterlimit="10" stroke-linecap="round" stroke-linejoin="round"/>
<path d="M88.7002 65C88.7002 65 90.3002 66.2 90.7002 67.6" stroke="#333333" stroke-width="1.9183" stroke-miterlimit="10" stroke-linecap="round" stroke-linejoin="round"/>
<path d="M73 101.3C69.4 97.5 57.3 98.4 55.2 98.3V97.1C55.2 95 55 93.2 55 92.4H55.2C57.9 94 61 95 64.1 95C67.3 95 70.3 94 73 92.4H73.2C73.1 93.7 72.9 97.6 73 101.3Z" fill="#F79696"/>
<path d="M87.1001 66.8C87.1001 76.1 81.5001 87 73.6001 92.1C70.7001 94 67.5001 95.1 64.1001 95.1C60.7001 95.1 57.5001 94 54.6001 92.1C46.6001 87 41.1001 76.1 41.1001 66.8C41.1001 64.7 41.1001 62.5 41.2001 60.3C41.8001 49.5 45.2001 35.9 64.1001 35.9C87.1001 35.9 86.7001 52.5 87.0001 60.4C87.1001 62.5 87.1001 64.7 87.1001 66.8Z" fill="white" stroke="#29263D" stroke-width="1.9183" stroke-miterlimit="10" stroke-linecap="round" stroke-linejoin="round"/>
<path d="M56.5 61.8C56.5 62.9 55.5999 63.7 54.5999 63.7C53.4999 63.7 52.7 62.8 52.7 61.8C52.7 60.7 53.5999 59.9 54.5999 59.9C55.5999 59.9 56.5 60.8 56.5 61.8Z" fill="#333333"/>
<path d="M75.3 61.8C75.3 62.9 74.4 63.7 73.4 63.7C72.3 63.7 71.5 62.8 71.5 61.8C71.5 60.7 72.4 59.9 73.4 59.9C74.4 59.9 75.3 60.8 75.3 61.8Z" fill="#333333"/>
<path d="M66.5999 56.7C66.5999 56.7 65.5999 61.8 66.0999 66.3C66.5999 70.8 67.6999 72.8 66.5999 73.1C65.4999 73.5 62.8999 73.1 62.8999 73.1" stroke="#333333" stroke-width="1.9183" stroke-miterlimit="10" stroke-linecap="round" stroke-linejoin="round"/>
<path d="M56.5 55.8C56.5 55.8 51.1 54.5 49.3 56.7C49.3 56.7 48.8 53.9 52.1 53.9C55.4 53.8 56.5 55.8 56.5 55.8Z" fill="#333333"/>
<path d="M71.6001 55.8C71.6001 55.8 77.0001 54.5 78.8001 56.7C78.8001 56.7 79.3001 53.9 76.0001 53.9C72.7001 53.8 71.6001 55.8 71.6001 55.8Z" fill="#333333"/>
<path d="M56.5 78.8C56.5 78.8 64.9 76.6 70.7 78.8C70.7 78.8 68.4 82.6 63.6 82.6C58.8 82.7 56.6 79.8 56.5 78.8Z" fill="#29263D"/>
<path d="M59.6001 81.9C59.6001 81.9 61.1001 79.6 63.6001 80.7C63.6001 80.7 64.7001 79.8 66.1001 80.4C67.5001 81 67.7001 81.6 67.7001 81.6C67.7001 81.6 64.3001 83.8 59.6001 81.9Z" fill="#F79696"/>
<path d="M87.2 66.8C87.1 69.2 86.9001 72 86.4001 74.9C85.1001 82.6 81.7001 91.3 73.4001 95C73.3001 95.1 73.1 95.1 73 95.2C70.5 96.3 67.5 96.9 64 96.9C60.5 96.9 57.6 96.4 55.1 95.4C55 95.4 54.8001 95.3 54.7001 95.3C45.4001 91.7 42.1001 82.5 40.9001 74.7C40.4001 71.3 40.3 68.1 40.3 65.8C40.3 63.8 40.4001 62.4 40.4001 61.9C40.3001 60.8 40.5001 60.8 40.7001 61.4C40.8001 61.7 40.9 62.2 41.1 62.7C41.4 63.8 41.7001 65.2 41.7001 65.2C41.7001 65.2 41.9001 71.5 43.9001 75.3C44.8001 76.9 46 78.1 47.6 78.1C49.4 78.1 60.7001 72.4 65 75.4C65 75.4 68.8001 73.1 73.3001 75.4C77.9001 77.8 79.9 78.8 82.1 78.1C83.2 77.7 84.1001 76.8 84.8001 75.4C86.2001 72.5 86.8 67.6 87 61.3C87 61.1 87 60.9 87 60.7C87 60.7 87 60.9 87 61.1C87 61.2 87 61.2 87 61.3C87.1 61.9 87.3 64.1 87.2 66.8Z" fill="#3A3E53" stroke="#333333" stroke-width="1.9183" stroke-miterlimit="10" stroke-linecap="round" stroke-linejoin="round"/>
<path d="M58 80.3C58 80.3 64.3 83.2 68.5 80.2" stroke="white" stroke-width="1.9183" stroke-miterlimit="10" stroke-linecap="round" stroke-linejoin="round"/>
<path d="M87.0001 60.8C87.0001 60.9 87.0001 61 87.0001 61C85.3001 57 83.1001 44.4 83.1001 44.4C66.1001 50 43.2001 49 43.2001 49C43.2001 54.1 41.9001 58.1 41.1001 60.2C41.0001 60.4 40.9001 60.6 40.8001 60.8C40.7001 61 40.7001 61.1 40.6001 61.3C40.4001 61.6 40.3001 61.8 40.3001 61.8C40.1001 61.4 40.0001 61.1 39.8001 60.7C32.4001 42.3 40.3001 34.8 44.3001 33.2C48.4001 31.6 66.2001 24.8 71.4001 22.5C76.7001 20.2 88.3001 24.9 90.9001 32.1C93.7001 39.1 87.7001 58.6 87.0001 60.8Z" fill="#3A3E53" stroke="#333333" stroke-width="1.9183" stroke-miterlimit="10" stroke-linecap="round" stroke-linejoin="round"/>
<path d="M125 65C125 86.5 113.6 105.4 96.6 116C93.1 113.2 86.9 110.2 82.1 108.8C81.7 108.7 81.5 109.5 81.5 109.5C77.7 108.4 74.8 107.9 74.6 107.9C73.8 106.8 73.5 104.3 73.4 101.7C73.3 99.4 73.3 96.9 73.4 95.1C81.7 91.4 85.1 82.8 86.4 75C93.5 73.4 94.7 65.6 93.3 62.9C91.7 59.9 87.4 60.8 87.4 60.8C87.3 60.8 87.2 60.9 87.1 60.9C87.1 60.8 87.1 60.8 87.1 60.7C87.8 58.5 93.8 39.1 91.2 32C88.6 24.8 76.9 20.1 71.7 22.4C66.4 24.7 48.7 31.6 44.6 33.1C40.6 34.6 32.7 42.2 40.1 60.6C38.7 60.5 36.4 60.7 35.2 62.8C33.8 65.4 34.9 72.5 41 74.6C42.1 82.5 45.5 91.6 54.8 95.2C54.8 95.8 54.8 96.4 54.8 97C54.9 100.9 54.7 106 53.5 107.8C53.5 107.8 51.1 108.4 47.8 109.5C47.5 109.6 47.6 108.9 47.3 109C42.9 110.4 37 113 32.8 115.5C16.1 105 5 86.3 5 65C5 31.9 31.9 5 65 5C98.1 5 125 31.9 125 65Z" fill="white" stroke="#333333" stroke-width="2" stroke-miterlimit="10"/>
<path d="M48 122.6C42.6 121 37.4 118.6 32.8 115.7C37 113.2 43 110.6 47.3 109.2C47.6 109.1 47.5 109.8 47.8 109.7L48 122.6Z" fill="#3A3E53" stroke="#333333" stroke-width="1.9183" stroke-miterlimit="10"/>
<path d="M73.4001 95C73.3001 96.8 73.3001 99.3 73.4001 101.6C73.5001 104.2 73.9001 106.7 74.6001 107.8C74.8001 108.1 75.0001 108.3 75.3001 108.4C78.2001 109.5 76.1001 112.5 73.3001 114.5C70.5001 116.5 67.7001 118.5 64.0001 118.5C60.3001 118.5 57.5001 116.5 54.7001 114.5C51.9001 112.5 49.8001 109.5 52.7001 108.4C53.0001 108.3 53.2001 108.1 53.4001 107.8C54.6001 106 54.8001 100.9 54.7001 97C54.7001 96.4 54.7001 95.7 54.7001 95.2C45.4001 91.6 42.1001 82.4 40.9001 74.6C34.8001 72.5 33.7001 65.4 35.1001 62.8C36.2001 60.7 38.6001 60.5 40.0001 60.6C32.6001 42.2 40.5001 34.7 44.5001 33.1C48.6001 31.5 66.4001 24.7 71.6001 22.4C76.9001 20.1 88.5001 24.8 91.1001 32C93.7001 39 87.7001 58.5 87.0001 60.7C87.0001 60.8 87.0001 60.8 87.0001 60.9C87.1001 60.8 87.2001 60.8 87.3001 60.8C87.3001 60.8 91.6001 59.8 93.2001 62.9C94.7001 65.6 93.4001 73.4 86.3001 75C85.1001 82.7 81.7001 91.3 73.4001 95Z" stroke="#333333" stroke-width="2" stroke-miterlimit="10"/>
<path d="M81.5 109.4V122.6C76.2001 124.1 70.7001 124.9 65 124.9C59.1 124.9 53.4 124 48 122.5L47.8 109.5C51.1 108.4 53.5 107.8 53.5 107.8C53.3 108.1 53.1 108.3 52.8 108.4C49.9 109.5 52 112.5 54.8 114.5C57.6 116.5 60.4 118.5 64.1 118.5C67.8 118.5 70.6001 116.5 73.4001 114.5C76.2001 112.5 78.3001 109.5 75.4001 108.4C75.1001 108.3 74.9 108.1 74.7 107.8C74.8 107.8 77.7001 108.4 81.5 109.4Z" fill="#F79696" stroke="#333333" stroke-width="1.918" stroke-miterlimit="10" stroke-linejoin="round"/>
<path d="M96.6 116C92 118.9 86.9 121.1 81.5 122.7V109.5C81.5 109.5 81.7 108.7 82.1 108.8C86.9 110.2 93.1 113.2 96.6 116Z" fill="#3A3E53" stroke="#333333" stroke-width="1.9183" stroke-miterlimit="10"/>
</svg>
