<svg width="130" height="130" viewBox="0 0 130 130" fill="none" xmlns="http://www.w3.org/2000/svg">
<circle cx="65" cy="65" r="65" fill="white"/>
<g clip-path="url(#clip0)">
<path d="M125 65C125 80.5 119.1 94.6 109.5 105.3C98.5 117.4 82.7 125 65 125C47.3 125 31.4 117.3 20.4 105.2C10.8 94.5 5 80.5 5 65C5 31.9 31.9 5 65 5C98.1 5 125 31.9 125 65Z" fill="white" stroke="#333333" stroke-width="2" stroke-miterlimit="10"/>
<path d="M109.5 105.3C100.8 114.9 89.2 121.6 75.9 124.1C74.9 124.3 74 124.4 73 124.6C70.4 125 67.7 125.1 65 125.1C62.3 125.1 59.6 124.9 57 124.6C56 124.5 55 124.3 54.1 124.1C40.9 121.7 29.1 114.9 20.5 105.3H20.6C20.8 105.2 21.1 105.1 21.3 105C21.4 105 21.4 105 21.5 104.9C21.7 104.8 21.9 104.8 22.1 104.7H22.2C22.5 104.6 22.8 104.6 23 104.5C24.5 104.3 26 104 27.5 103.8C28.7 103.6 30 103.4 31.2 103.2C38.9 102 47 101 57 100.6C59.5 100.5 62.2 100.5 65 100.5C67.8 100.5 70.5 100.5 73 100.6C83 101 91.1 102 98.7 103.1C100 103.3 101.3 103.5 102.5 103.7C104 103.9 105.5 104.2 107 104.4C107.9 104.6 108.7 104.9 109.5 105.3Z" fill="#7CBDD6"/>
<path d="M109.5 105.3C100.8 114.9 89.2 121.6 75.9 124.1C74.9 124.3 74 124.4 73 124.6C70.4 125 67.7 125.1 65 125.1C62.3 125.1 59.6 124.9 57 124.6C56 124.5 55 124.3 54.1 124.1C40.9 121.7 29.1 114.9 20.5 105.3H20.6C20.8 105.2 21.1 105.1 21.3 105C21.4 105 21.4 105 21.5 104.9C21.7 104.8 21.9 104.8 22.1 104.7H22.2C22.5 104.6 22.8 104.6 23 104.5C24.5 104.3 26 104 27.5 103.8C28.7 103.6 30 103.4 31.2 103.2C38.8 102 46.8 101 57 100.6C59.5 100.5 62.2 100.5 65 100.5C67.8 100.5 70.5 100.5 73 100.6C83.2 100.9 91.1 101.9 98.7 103.1C100 103.3 101.3 103.5 102.5 103.7C104 103.9 105.5 104.2 107 104.4C107.9 104.6 108.7 104.9 109.5 105.3Z" stroke="#333333" stroke-width="2" stroke-linejoin="round"/>
<path d="M51 80.5V94.6C51 102.3 57.3 108.5 65 108.5C72.7 108.5 79 102.3 79 94.6V80.5H51Z" fill="#6AD3B8"/>
<path opacity="0.5" d="M51 84.7L72.7 106.2C76.6 103.7 79 99.3 79 94.6V80.5H51V84.7Z" fill="#333333"/>
<path d="M51 90.5C51 90.5 55 96.5 65 96.5C75 96.5 79 90.5 79 90.5" stroke="#51A58D" stroke-width="2" stroke-miterlimit="10"/>
<path d="M51 94.5C51 94.5 55 100.5 65 100.5C75 100.5 79 94.5 79 94.5" stroke="#51A58D" stroke-width="2" stroke-miterlimit="10"/>
<path d="M51 98.5C51 98.5 55 104.5 65 104.5C75 104.5 79 98.5 79 98.5" stroke="#51A58D" stroke-width="2" stroke-miterlimit="10"/>
<path d="M77.9001 87.9C74.3001 91.5 55.6001 91.5 52.1001 87.9" stroke="#5D6268" stroke-width="2" stroke-linejoin="round"/>
<path d="M51 80.5V94.6C51 102.3 57.3 108.5 65 108.5C72.7 108.5 79 102.3 79 94.6V80.5H51Z" stroke="#333333" stroke-width="2" stroke-linejoin="round"/>
<path d="M75 118.5C75 120.7 74.3 122.8 73 124.5C70.4 124.9 67.7 125 65 125C62.3 125 59.6 124.8 57 124.5C55.7 122.8 55 120.8 55 118.5C55 113 59.5 108.5 65 108.5C70.5 108.5 75 113 75 118.5Z" fill="#61A6C9"/>
<path d="M65 122.5C67.2091 122.5 69 120.709 69 118.5C69 116.291 67.2091 114.5 65 114.5C62.7909 114.5 61 116.291 61 118.5C61 120.709 62.7909 122.5 65 122.5Z" fill="#81E2C7"/>
<path d="M63 120.5C63 121.1 63.1 121.6 63.4 122.1C63.9 122.3 64.5 122.5 65 122.5C67.2 122.5 69 120.7 69 118.5C69 117.9 68.9 117.4 68.6 116.9C68.1 116.7 67.5 116.5 67 116.5C64.8 116.5 63 118.3 63 120.5Z" fill="#6AD3B8"/>
<path d="M65 122.5C67.2091 122.5 69 120.709 69 118.5C69 116.291 67.2091 114.5 65 114.5C62.7909 114.5 61 116.291 61 118.5C61 120.709 62.7909 122.5 65 122.5Z" stroke="#333333" stroke-width="2" stroke-linecap="round" stroke-linejoin="round"/>
<path d="M75 118.5C75 120.7 74.3 122.8 73 124.5C70.4 124.9 67.7 125 65 125C62.3 125 59.6 124.8 57 124.5C55.7 122.8 55 120.8 55 118.5C55 113 59.5 108.5 65 108.5C70.5 108.5 75 113 75 118.5Z" stroke="#333333" stroke-width="2" stroke-linejoin="round"/>
<path d="M65 28.3C48 28.3 42.3 37.3 42.4 49.1C42.4 50.6 42.5 52.1 42.6 53.6L44.7 69.2C44.9 80.9 52.3 85.3 54.2 87.8C57.5 92.3 62.4 92.4 65 92.4C67.6 92.4 72.5 92.3 75.8 87.8C77.6 85.3 85.1 81 85.3 69.2L87.4 53.6C87.6 52.1 87.6 50.6 87.6 49.1C87.7 37.4 82 28.3 65 28.3Z" fill="#61A6C9"/>
<path d="M44.8999 66.4V72.1C46.0999 81.7 52.4999 85.6 54.1999 87.8C54.3999 88.1 54.6999 88.4 54.9999 88.7V76.5C55.0999 71.1 50.8999 66.6 45.4999 66.4C45.2999 66.4 45.0999 66.4 44.8999 66.4Z" fill="#708EBA"/>
<path d="M65 28.3C48 28.3 42.3 37.3 42.4 49.1C42.4 50.6 42.5 52.1 42.6 53.6L44.7 69.2C44.9 80.9 52.3 85.3 54.2 87.8C57.5 92.3 62.4 92.4 65 92.4C67.6 92.4 72.5 92.3 75.8 87.8C77.6 85.3 85.1 81 85.3 69.2L87.4 53.6C87.6 52.1 87.6 50.6 87.6 49.1C87.7 37.4 82 28.3 65 28.3Z" stroke="#333333" stroke-width="2" stroke-linejoin="round"/>
<path d="M75 58.5C73.3 58.5 72 59.8 72 61.5C72 63.2 73.3 64.5 75 64.5C76.7 64.5 78 63.2 78 61.5C78 59.8 76.6 58.5 75 58.5Z" fill="#6AD3B8" stroke="#333333" stroke-width="2" stroke-linecap="round" stroke-linejoin="round"/>
<path d="M55 58.5C53.3 58.5 52 59.8 52 61.5C52 63.2 53.3 64.5 55 64.5C56.7 64.5 58 63.2 58 61.5C58 59.8 56.6 58.5 55 58.5Z" fill="#6AD3B8" stroke="#333333" stroke-width="2" stroke-linecap="round" stroke-linejoin="round"/>
<path d="M65 24.5C61.6 24.6 58.2 25.3 55 26.5V38.5C55 44 59.5 48.5 65 48.5C70.5 48.5 75 44 75 38.5V26.5C71.8 25.2 68.4 24.6 65 24.5Z" fill="#61A6C9"/>
<path d="M65 24.5C61.6 24.6 58.2 25.3 55 26.5V38.5C55 44 59.5 48.5 65 48.5C70.5 48.5 75 44 75 38.5V26.5C71.8 25.2 68.4 24.6 65 24.5Z" stroke="#333333" stroke-width="2" stroke-linecap="round" stroke-linejoin="round"/>
<path d="M65 66.5V49.2" stroke="#333333" stroke-width="2" stroke-linecap="round" stroke-linejoin="round"/>
<path d="M45 66.5V72.5C46.3 81.9 52.5 85.7 54.2 87.9C54.4 88.2 54.7 88.5 55 88.8V76.5C55 71 50.5 66.5 45 66.5Z" stroke="#333333" stroke-width="2" stroke-linejoin="round"/>
<path d="M85.1 66.4V72.1C83.9 81.7 77.5 85.6 75.8 87.8C75.6 88.1 75.3 88.4 75 88.7V76.5C74.9 71.1 79.1 66.6 84.5 66.4C84.7 66.4 84.9 66.4 85.1 66.4Z" fill="#708EBA"/>
<path d="M85 66.5V72.5C83.7 81.9 77.4 85.7 75.8 87.9C75.6 88.2 75.3 88.5 75 88.8V76.5C75 71 79.5 66.5 85 66.5Z" stroke="#333333" stroke-width="2" stroke-linejoin="round"/>
<path d="M42.1 49.2L35 56.5V68.3L44.6 72.6C44.6 72.6 45.3 56 42.1 49.2Z" fill="#708EBA"/>
<path d="M42.1 49.2L35 56.5V68.3L44.6 72.6C44.6 72.6 45.3 56 42.1 49.2Z" stroke="#333333" stroke-width="2" stroke-linejoin="round"/>
<path d="M39 62.5H43" stroke="#333333" stroke-width="2" stroke-linejoin="round"/>
<path d="M87.9 49.2L95 56.5V68.3L85.4 72.6C85.4 72.6 84.7 56 87.9 49.2Z" fill="#708EBA"/>
<path d="M87.9 49.2L95 56.5V68.3L85.4 72.6C85.4 72.6 84.7 56 87.9 49.2Z" stroke="#333333" stroke-width="2" stroke-linejoin="round"/>
<path d="M101 62.5H95" stroke="#333333" stroke-width="2" stroke-linejoin="round"/>
<path d="M104 65.5C105.657 65.5 107 64.1569 107 62.5C107 60.8431 105.657 59.5 104 59.5C102.343 59.5 101 60.8431 101 62.5C101 64.1569 102.343 65.5 104 65.5Z" fill="#6AD3B8" stroke="#333333" stroke-width="2" stroke-linejoin="round"/>
<path d="M29 62.5H35" stroke="#333333" stroke-width="2" stroke-linejoin="round"/>
<path d="M26 65.5C27.6569 65.5 29 64.1569 29 62.5C29 60.8431 27.6569 59.5 26 59.5C24.3431 59.5 23 60.8431 23 62.5C23 64.1569 24.3431 65.5 26 65.5Z" fill="#6AD3B8" stroke="#333333" stroke-width="2" stroke-linejoin="round"/>
<path d="M91 62.5H87" stroke="#333333" stroke-width="2" stroke-linejoin="round"/>
<path d="M59 76.5V80.5" stroke="#333333" stroke-width="2" stroke-linejoin="round"/>
<path d="M63 76.5V80.5" stroke="#333333" stroke-width="2" stroke-linejoin="round"/>
<path d="M67 76.5V80.5" stroke="#333333" stroke-width="2" stroke-linejoin="round"/>
<path d="M71 76.5V80.5" stroke="#333333" stroke-width="2" stroke-linejoin="round"/>
<path d="M65 19.5C67.2 19.5 69 21.3 69 23.5V38.5C69 40.7 67.2 42.5 65 42.5C62.8 42.5 61 40.7 61 38.5V23.5C61 21.3 62.8 19.5 65 19.5Z" fill="#61A6C9"/>
<path d="M65 19.5C67.2 19.5 69 21.3 69 23.5V38.5C69 40.7 67.2 42.5 65 42.5C62.8 42.5 61 40.7 61 38.5V23.5C61 21.3 62.8 19.5 65 19.5Z" stroke="#333333" stroke-width="2" stroke-miterlimit="10"/>
<path d="M51 106.5H37V100.5C37 97.2 39.7 94.5 43 94.5H51V106.5Z" fill="#61A6C9"/>
<path d="M37 106.5V100.5C37 97.2 39.7 94.5 43 94.5H51V106.5" stroke="#333333" stroke-width="2" stroke-linejoin="round"/>
<path d="M41 100.5H47" stroke="#333333" stroke-width="2" stroke-linejoin="round"/>
<path d="M41 102.5H47" stroke="#333333" stroke-width="2" stroke-linejoin="round"/>
<path d="M41 104.5H47" stroke="#333333" stroke-width="2" stroke-linejoin="round"/>
<path d="M79 106.5H93V100.5C93 97.2 90.3 94.5 87 94.5H79V106.5Z" fill="#61A6C9"/>
<path d="M93 106.5V100.5C93 97.2 90.3 94.5 87 94.5H79V106.5" stroke="#333333" stroke-width="2" stroke-linejoin="round"/>
<path d="M89 100.5H83" stroke="#333333" stroke-width="2" stroke-linejoin="round"/>
<path d="M89 102.5H83" stroke="#333333" stroke-width="2" stroke-linejoin="round"/>
<path d="M89 104.5H83" stroke="#333333" stroke-width="2" stroke-linejoin="round"/>
<path d="M54.1 124L53.7 123.4C52.2 121.2 49.8 119.6 47.2 119.1L45 118.6C40.7 117.7 37 114.9 35.1 110.9L31.4 103.1L31 102.5" stroke="#333333" stroke-width="2" stroke-linecap="round" stroke-linejoin="round"/>
<path d="M75.8999 124L76.2999 123.4C77.7999 121.2 80.0999 119.6 82.7999 119.1L84.9999 118.6C89.2999 117.7 92.9999 114.9 94.8999 110.9L98.5999 103.1L98.8999 102.5" stroke="#333333" stroke-width="2" stroke-linecap="round" stroke-linejoin="round"/>
</g>
<defs>
<clipPath id="clip0">
<rect width="122" height="122" fill="white" transform="translate(4 4)"/>
</clipPath>
</defs>
</svg>
