<svg width="77" height="77" viewBox="0 0 77 77" fill="none" xmlns="http://www.w3.org/2000/svg">
<path d="M38.1667 76.0833C59.1075 76.0833 76.0833 59.1075 76.0833 38.1667C76.0833 17.2259 59.1075 0.25 38.1667 0.25C17.2259 0.25 0.25 17.2259 0.25 38.1667C0.25 59.1075 17.2259 76.0833 38.1667 76.0833Z" fill="white"/>
<path d="M38.1667 72.8333C57.3125 72.8333 72.8333 57.3125 72.8333 38.1667C72.8333 19.0208 57.3125 3.5 38.1667 3.5C19.0208 3.5 3.5 19.0208 3.5 38.1667C3.5 57.3125 19.0208 72.8333 38.1667 72.8333Z" fill="#FFE84A" stroke="#231F20" stroke-width="1.55555" stroke-miterlimit="10"/>
<path d="M52.295 34.5333V24.7933C52.295 22.9317 50.7866 21.4233 48.925 21.4233C47.0633 21.4233 45.555 22.9317 45.555 24.7933V25.095C45.555 22.9 43.775 21.12 41.58 21.12C39.385 21.12 37.605 22.9 37.605 25.095V25.0517C37.605 22.88 35.845 21.12 33.6733 21.12C31.5016 21.12 29.7416 22.88 29.7416 25.0517V29.8233C29.7416 27.7833 28.0883 26.13 26.0483 26.13C24.0083 26.13 22.355 27.7833 22.355 29.8233V41.6883C22.355 49.1567 28.41 55.2117 35.8783 55.2117H37.7466C46.7083 55.2117 53.9716 47.9467 53.9716 38.9867C53.9766 37.28 53.3416 35.7217 52.295 34.5333Z" fill="white"/>
<path d="M26.0517 38.35C24.0117 38.35 22.3584 36.6967 22.3584 34.6567V29.8233C22.3584 27.7833 24.0117 26.13 26.0517 26.13C28.0917 26.13 29.7451 27.7833 29.7451 29.8233V34.6567C29.7451 36.6967 28.0917 38.35 26.0517 38.35Z" stroke="#231F20" stroke-width="1.55555" stroke-miterlimit="10" stroke-linecap="round" stroke-linejoin="round"/>
<path d="M53.9766 38.9883C53.9766 35.2617 50.955 32.24 47.2283 32.24H31.065C30.335 32.24 29.7433 32.8317 29.7433 33.5617V34.3883C29.7433 37.6233 32.365 40.245 35.6 40.245H43.62" stroke="#231F20" stroke-width="1.55555" stroke-miterlimit="10" stroke-linecap="round" stroke-linejoin="round"/>
<path d="M37.6067 25.095V32.24" stroke="#231F20" stroke-width="1.55555" stroke-miterlimit="10" stroke-linecap="round" stroke-linejoin="round"/>
<path d="M52.295 34.5333V24.7933C52.295 22.9317 50.7866 21.4233 48.925 21.4233C47.0633 21.4233 45.555 22.9317 45.555 24.7933V25.095C45.555 22.9 43.775 21.12 41.58 21.12C39.385 21.12 37.605 22.9 37.605 25.095V25.0517C37.605 22.88 35.845 21.12 33.6733 21.12C31.5016 21.12 29.7416 22.88 29.7416 25.0517V29.8233C29.7416 27.7833 28.0883 26.13 26.0483 26.13C24.0083 26.13 22.355 27.7833 22.355 29.8233V41.6883C22.355 49.1567 28.41 55.2117 35.8783 55.2117H37.7466C46.7083 55.2117 53.9716 47.9467 53.9716 38.9867C53.9766 37.28 53.3416 35.7217 52.295 34.5333Z" stroke="#231F20" stroke-width="1.55555" stroke-miterlimit="10" stroke-linecap="round" stroke-linejoin="round"/>
<path d="M45.5549 25.095V32.24" stroke="#231F20" stroke-width="1.55555" stroke-miterlimit="10" stroke-linecap="round" stroke-linejoin="round"/>
<path d="M43.5284 40.2433C39.9351 40.2433 37.0217 43.1567 37.0217 46.75V48.675" stroke="#231F20" stroke-width="1.55555" stroke-miterlimit="10" stroke-linecap="round" stroke-linejoin="round"/>
</svg>
