<svg width="77" height="77" viewBox="0 0 77 77" fill="none" xmlns="http://www.w3.org/2000/svg">
<path d="M38.2083 76.1383C59.1491 76.1383 76.125 59.1625 76.125 38.2217C76.125 17.2809 59.1491 0.304993 38.2083 0.304993C17.2675 0.304993 0.291626 17.2809 0.291626 38.2217C0.291626 59.1625 17.2675 76.1383 38.2083 76.1383Z" fill="white"/>
<path d="M38.2083 72.8883C57.3542 72.8883 72.875 57.3675 72.875 38.2217C72.875 19.0758 57.3542 3.55499 38.2083 3.55499C19.0624 3.55499 3.54163 19.0758 3.54163 38.2217C3.54163 57.3675 19.0624 72.8883 38.2083 72.8883Z" fill="#F1BAF5" stroke="#231F20" stroke-width="1.55555" stroke-miterlimit="10"/>
<path d="M49.9441 15.1433C48.1458 14.89 46.4841 16.1433 46.2324 17.94L43.6124 35.9133L41.0041 17.9917C40.7508 16.1933 39.0891 14.9417 37.2924 15.195C35.4941 15.4483 34.2424 17.11 34.4958 18.9067L36.4058 32.4933C35.7941 31.9683 34.9991 31.65 34.1308 31.65C32.2008 31.65 30.6358 33.215 30.6358 35.145V38.3C30.6358 36.37 29.0708 34.805 27.1408 34.805C25.2108 34.805 23.6458 36.37 23.6458 38.3V47.7767C23.6458 54.7567 28.9141 60.8533 35.8791 61.3033C43.0558 61.7683 49.8574 56.35 49.8574 47.855C49.8574 36.6367 49.8574 40.3867 52.7424 18.8533C52.9941 17.0583 51.7424 15.3967 49.9441 15.1433Z" fill="white"/>
<path d="M40.9817 47.8583C37.7601 47.8583 35.1467 50.47 35.1467 53.6917V55.4167" stroke="#231F20" stroke-width="1.55555" stroke-miterlimit="10" stroke-linecap="round" stroke-linejoin="round"/>
<path d="M49.9441 15.1433C48.1458 14.89 46.4841 16.1433 46.2324 17.94L43.6124 35.9133L41.0041 17.9917C40.7508 16.1933 39.0891 14.9417 37.2924 15.195C35.4941 15.4483 34.2424 17.11 34.4958 18.9067L36.4058 32.4933C35.7941 31.9683 34.9991 31.65 34.1308 31.65C32.2008 31.65 30.6358 33.215 30.6358 35.145V38.3C30.6358 36.37 29.0708 34.805 27.1408 34.805C25.2108 34.805 23.6458 36.37 23.6458 38.3V47.7767C23.6458 54.7567 28.9141 60.8533 35.8791 61.3033C43.0558 61.7683 49.8574 56.35 49.8574 47.855C49.8574 36.6367 49.8574 40.3867 52.7424 18.8533C52.9941 17.0583 51.7424 15.3967 49.9441 15.1433Z" stroke="#231F20" stroke-width="1.55555" stroke-miterlimit="10" stroke-linecap="round" stroke-linejoin="round"/>
<path d="M27.1383 34.8067C25.2083 34.8067 23.6433 36.3717 23.6433 38.3017V42.57C23.6433 44.5 25.2083 46.065 27.1383 46.065C29.0683 46.065 30.6333 44.5 30.6333 42.57V38.3017C30.6333 36.3717 29.0683 34.8067 27.1383 34.8067Z" fill="white"/>
<path d="M34.1283 31.6517C32.1983 31.6517 30.6333 33.2167 30.6333 35.1467V42.57C30.6333 44.5 32.1983 46.065 34.1283 46.065C36.0583 46.065 37.6233 44.5 37.6233 42.57V35.1467C37.6216 33.215 36.0583 31.6517 34.1283 31.6517Z" fill="white"/>
<path d="M27.1383 34.8067C25.2083 34.8067 23.6433 36.3717 23.6433 38.3017V42.57C23.6433 44.5 25.2083 46.065 27.1383 46.065C29.0683 46.065 30.6333 44.5 30.6333 42.57V38.3017C30.6333 36.3717 29.0683 34.8067 27.1383 34.8067Z" stroke="#231F20" stroke-width="1.55555" stroke-miterlimit="10" stroke-linecap="round" stroke-linejoin="round"/>
<path d="M34.1283 31.6517C32.1983 31.6517 30.6333 33.2167 30.6333 35.1467V42.57C30.6333 44.5 32.1983 46.065 34.1283 46.065C36.0583 46.065 37.6233 44.5 37.6233 42.57V35.1467C37.6216 33.215 36.0583 31.6517 34.1283 31.6517Z" stroke="#231F20" stroke-width="1.55555" stroke-miterlimit="10" stroke-linecap="round" stroke-linejoin="round"/>
<path d="M49.8567 47.8583C49.8567 44.0916 46.8034 41.0383 43.0367 41.0383H32.4167C31.4184 41.0383 30.6084 41.8483 30.6084 42.8466C30.6084 45.615 32.8517 47.86 35.6217 47.86H40.9817" fill="white"/>
<path d="M49.8567 47.8583C49.8567 44.0916 46.8034 41.0383 43.0367 41.0383H32.4167C31.4184 41.0383 30.6084 41.8483 30.6084 42.8466C30.6084 45.615 32.8517 47.86 35.6217 47.86H40.9817" stroke="#231F20" stroke-width="1.55555" stroke-miterlimit="10" stroke-linecap="round" stroke-linejoin="round"/>
</svg>
